<mxfile host="app.diagrams.net" modified="2024-06-10T06:31:00.546Z" agent="Mozilla/5.0 (Windows NT 10.0; Win64; x64) AppleWebKit/537.36 (KHTML, like Gecko) Chrome/125.0.0.0 Safari/537.36" etag="DXo5YDyEmw2KtbKxTCzW" version="24.5.2" type="onedrive">
  <diagram name="Halaman-1" id="3GoBALHi5tsJ1e_FZn-Y">
    <mxGraphModel grid="1" page="1" gridSize="10" guides="1" tooltips="1" connect="1" arrows="1" fold="1" pageScale="1" pageWidth="827" pageHeight="1169" math="0" shadow="0">
      <root>
        <mxCell id="0" />
        <mxCell id="1" parent="0" />
        <mxCell id="jofpl8cEKRvMlipwuFq--3" value="pengguna" style="rounded=0;whiteSpace=wrap;html=1;" vertex="1" parent="1">
          <mxGeometry x="160" y="210" width="120" height="60" as="geometry" />
        </mxCell>
        <mxCell id="jofpl8cEKRvMlipwuFq--9" value="" style="edgeStyle=orthogonalEdgeStyle;rounded=0;orthogonalLoop=1;jettySize=auto;html=1;" edge="1" parent="1" source="jofpl8cEKRvMlipwuFq--5" target="jofpl8cEKRvMlipwuFq--3">
          <mxGeometry relative="1" as="geometry" />
        </mxCell>
        <mxCell id="jofpl8cEKRvMlipwuFq--5" value="program" style="ellipse;whiteSpace=wrap;html=1;aspect=fixed;" vertex="1" parent="1">
          <mxGeometry x="360" y="200" width="80" height="80" as="geometry" />
        </mxCell>
        <mxCell id="jofpl8cEKRvMlipwuFq--8" value="rincian menu utama" style="text;html=1;align=center;verticalAlign=middle;whiteSpace=wrap;rounded=0;" vertex="1" parent="1">
          <mxGeometry x="290" y="210" width="70" height="30" as="geometry" />
        </mxCell>
      </root>
    </mxGraphModel>
  </diagram>
</mxfile>
